<?xml version="1.0" standalone="no"?>
<!DOCTYPE svg PUBLIC "-//W3C//DTD SVG 20010904//EN"
 "http://www.w3.org/TR/2001/REC-SVG-20010904/DTD/svg10.dtd">
<svg version="1.0" xmlns="http://www.w3.org/2000/svg"
 width="835.000000pt" height="835.000000pt" viewBox="0 0 835.000000 835.000000"
 preserveAspectRatio="xMidYMid meet">

<g transform="translate(0.000000,835.000000) scale(0.100000,-0.100000)"
fill="#000000" stroke="none">
<path d="M3925 8344 c-625 -51 -1122 -188 -1635 -452 -1186 -609 -2021 -1747
-2234 -3043 -40 -248 -51 -387 -51 -674 0 -286 10 -419 52 -674 204 -1259
1006 -2378 2148 -2999 483 -262 1005 -423 1575 -484 162 -17 626 -17 790 0
1141 121 2150 672 2867 1567 496 620 794 1340 890 2153 21 184 24 648 5 832
-86 817 -392 1566 -895 2195 -708 883 -1706 1436 -2821 1561 -126 15 -588 26
-691 18z m460 -344 c205 -13 374 -34 550 -70 1340 -272 2433 -1237 2872 -2535
206 -611 253 -1298 132 -1925 -154 -794 -552 -1512 -1137 -2054 l-107 -99 -7
109 c-34 524 -216 989 -554 1410 -309 386 -776 707 -1241 855 -40 13 -73 25
-73 29 0 3 26 15 58 28 32 12 98 45 147 73 402 229 679 625 777 1112 20 96 23
143 23 327 0 186 -4 230 -23 322 -110 517 -435 939 -899 1168 -473 233 -1048
223 -1508 -26 -442 -239 -740 -638 -847 -1134 -32 -148 -37 -428 -9 -587 35
-207 107 -404 216 -588 161 -273 444 -540 697 -655 43 -19 77 -38 78 -41 0 -4
-28 -14 -62 -24 -210 -58 -481 -185 -690 -324 -662 -441 -1076 -1154 -1116
-1928 l-7 -126 -110 100 c-447 409 -822 994 -1014 1586 -201 621 -240 1273
-115 1912 202 1031 817 1928 1714 2499 661 422 1481 634 2255 586z"/>
</g>
</svg>
